<svg id="Layer_1" enable-background="new 0 0 511.999 511.999" height="512" viewBox="0 0 511.999 511.999" width="512" xmlns="http://www.w3.org/2000/svg"><g><g><path d="m437.018 111.479c-40-40.001-90.911-65.115-146.019-72.604v-3.875c0-19.299-15.701-35-35-35s-35 15.701-35 35v3.876c-55.107 7.489-106.018 32.603-146.019 72.604-48.351 48.351-74.98 112.638-74.98 181.018v65.001c0 10.497 5.844 21.668 14.211 27.167 1.852 1.217 3.799 2.128 5.789 2.74v37.12.082 51.395c0 22.539 12.894 35.995 34.489 35.995 22.014 0 38.656-11.868 57.928-25.61 29.61-21.114 66.461-47.391 143.582-47.391s113.972 26.277 143.582 47.391c19.271 13.742 35.915 25.61 57.929 25.61 21.596 0 34.489-13.456 34.489-35.995v-88.592c1.991-.612 3.937-1.529 5.789-2.746 8.366-5.499 14.21-16.67 14.21-27.167v-65.001c.001-68.379-26.627-132.666-74.98-181.018zm54.981 181.019v65.001c0 5.345-4.332 10.664-6.032 10.821-10.75-4.646-21.965-9.017-33.515-13.087.443-8.428.675-16.887.675-25.234 0-94.232-27.63-181.239-73.261-238.296 67.24 41.632 112.133 116.064 112.133 200.795zm-412.727 56.195c-.255-6.252-.399-12.506-.399-18.694 0-115.176 42.584-218.285 108.608-263.344 21.694-6.595 44.697-10.156 68.519-10.156s46.824 3.561 68.519 10.156c66.024 45.058 108.608 148.168 108.608 263.344 0 6.184-.144 12.433-.399 18.684-57.7-18.075-121.573-28.684-176.728-28.684-55.154 0-119.025 10.608-176.728 28.694zm161.728-313.693c0-8.271 6.729-15 15-15s15 6.729 15 15v1.946c-4.976-.286-9.975-.447-15-.447s-10.024.161-15 .447zm-221 257.498c0-84.731 44.893-159.164 112.135-200.795-45.633 57.057-73.262 144.064-73.262 238.296 0 8.353.235 16.817.679 25.246-11.556 4.074-22.777 8.45-33.532 13.102-1.687-.184-6.02-5.503-6.02-10.848zm437.51 199.501c-15.613 0-28.492-9.184-46.316-21.894-30.248-21.568-71.673-51.106-155.194-51.106s-124.946 29.539-155.193 51.107c-17.825 12.71-30.703 21.894-46.316 21.894-8.697 0-14.489-2.72-14.489-15.995v-25.637c5.598 2.427 12.246 3.632 19.989 3.632 21.588 0 37.299-9.444 55.491-20.38 21.596-12.982 48.472-29.138 96.855-35.284 5.479-.696 9.356-5.702 8.66-11.181s-5.717-9.356-11.18-8.66c-52.561 6.676-81.438 24.035-104.641 37.983-16.921 10.172-29.147 17.521-45.187 17.521-12.862 0-17.334-4.095-19.989-11.233v-38.642c65.669-27.292 147.77-44.125 215.999-44.125s150.329 16.833 216 44.125v38.639c-2.655 7.14-7.125 11.236-19.989 11.236-16.039 0-28.266-7.35-45.188-17.522-23.205-13.948-52.083-31.308-104.647-37.983-5.476-.692-10.484 3.182-11.18 8.661s3.182 10.484 8.66 11.18c48.388 6.145 75.266 22.302 96.862 35.284 18.192 10.936 33.904 20.38 55.492 20.38 7.743 0 14.391-1.205 19.989-3.632v25.637c.002 13.275-5.79 15.995-14.488 15.995z"/><path d="m326 214.249c0-38.598-31.401-70-70-70s-70 31.402-70 70 31.401 70 70 70 70-31.402 70-70zm-120 0c0-27.57 22.43-50 50-50s50 22.43 50 50-22.43 50-50 50-50-22.431-50-50z"/><path d="m256 375.749h-.007c-5.522 0-9.996 4.477-9.996 10s4.48 10 10.003 10 10-4.477 10-10-4.478-10-10-10z"/></g></g></svg>