<?xml version="1.0"?>
<svg xmlns="http://www.w3.org/2000/svg" width="512" height="512" viewBox="0 0 128 128"><g><path d="M80.81,46.79V40.67A13.769,13.769,0,0,0,93.185,26.989V1.747A1.749,1.749,0,0,0,91.435,0H83.25a1.749,1.749,0,0,0-1.75,1.75V13.431A25.761,25.761,0,0,0,64.187,25.358,25.759,25.759,0,0,0,46.875,13.431V1.747A1.75,1.75,0,0,0,45.125,0H36.939a1.75,1.75,0,0,0-1.75,1.75V26.989a13.762,13.762,0,0,0,12,13.626V46.79C27.736,67.1,18.875,102.2,18.875,126.247a1.75,1.75,0,0,0,1.75,1.75h86.75a1.749,1.749,0,0,0,1.75-1.75C109.125,102.2,100.263,67.1,80.81,46.79ZM50.689,40.739H77.31v5H50.689ZM85,13.024V3.5h4.685v9.5h-3.5C85.8,12.993,85.4,13,85,13.024ZM38.689,3.5h4.686v9.527q-.606-.03-1.186-.031h-3.5Zm0,23.492v-10.5h3.5c.459,0,.914.023,1.368.051.434.03.882.071,1.355.13h.008A22.256,22.256,0,0,1,62.584,29.846a1.749,1.749,0,0,0,3.207,0A22.251,22.251,0,0,1,83.454,16.674h.009c.473-.059.921-.1,1.355-.13.454-.028.909-.051,1.367-.051h3.5v10.5a10.26,10.26,0,0,1-10.25,10.25h-30.5A10.261,10.261,0,0,1,38.689,26.989ZM22.391,124.5c.439-23.973,9.794-56.957,27.294-75.254h28.63c17.5,18.3,26.856,51.281,27.293,75.254Z"/><path d="M73.515,56.158a1.75,1.75,0,0,0-.2,2.467A77.229,77.229,0,0,1,83.62,74.831,1.75,1.75,0,1,0,86.769,73.3,80.78,80.78,0,0,0,75.981,56.361,1.751,1.751,0,0,0,73.515,56.158Z"/></g></svg>
