<svg id="Layer_1" height="512" viewBox="0 0 512 512" width="512" xmlns="http://www.w3.org/2000/svg" data-name="Layer 1"><path d="m478.38 213.418a511.031 511.031 0 0 0 -19.4-87.844 132.415 132.415 0 0 0 -120.449-92.418h-165.062a132.415 132.415 0 0 0 -120.451 92.418 511.031 511.031 0 0 0 -19.4 87.844l-26.198 202.11a5.991 5.991 0 0 0 4.452 6.578l-2.791 33.353a6 6 0 0 0 5.667 6.493l59.91 3.12c.106.006.211.008.316.008a6 6 0 0 0 5.893-4.895l6.292-33.6.235.014c.116.006.233.01.349.01a6 6 0 0 0 5.72-4.2l16.586-52.7-.389 57.082a6 6 0 0 0 6 6.04h5.97v38.14a6 6 0 0 0 5.912 6h256.92a6 6 0 0 0 5.908-6v-38.141h5.97a6 6 0 0 0 6-6.04l-.389-57.082 16.586 52.7a6 6 0 0 0 5.72 4.2c.116 0 .233 0 .349-.01l.235-.014 6.292 33.6a6 6 0 0 0 5.893 4.895c.1 0 .211 0 .316-.008l59.91-3.12a6 6 0 0 0 5.667-6.493l-2.791-33.353a5.991 5.991 0 0 0 4.452-6.578zm-220.51-168.388h49.678a55.9 55.9 0 0 1 -15.239 33.077 49.4 49.4 0 0 1 -72.616 0 55.9 55.9 0 0 1 -15.241-33.08zm-65.467 0a67.87 67.87 0 0 0 18.626 41.383c12.119 12.637 28.09 19.6 44.971 19.6s32.852-6.96 44.973-19.6a67.863 67.863 0 0 0 18.627-41.383h12.437c-2.937 40.97-35.914 73.39-76.037 73.39s-73.079-32.4-76.031-73.39zm-122.364 407.785-48.484-2.525 2.291-27.373 51.235 2.97zm371.922 0-5.042-26.928 51.235-2.97 2.291 27.373zm-13.381-38.465-26.757-85.021-.148.046-.625-91.709c-.149-26.155 2.739-48.507 9.968-77.148a6 6 0 1 0 -11.636-2.936c-7.493 29.691-10.486 52.913-10.332 80.159l1.25 183.089h-43.3a6 6 0 0 0 0 12h31.37v32.232h-244.74v-32.232h182.7a6 6 0 0 0 0-12h-194.63l1.249-183.1c.154-27.239-2.839-50.461-10.332-80.152a6 6 0 1 0 -11.636 2.936c7.229 28.641 10.117 50.993 9.968 77.141l-.625 91.716-.148-.046-26.756 85.025-63.272-3.665 25.372-195.723a499.044 499.044 0 0 1 18.942-85.776 120.368 120.368 0 0 1 103.494-83.61c3.227 47.339 41.491 84.844 88.044 84.844s84.816-37.5 88.044-84.844a120.371 120.371 0 0 1 103.494 83.61 499.054 499.054 0 0 1 18.942 85.775l25.372 195.724z"/><path d="m305.6 229.712c-3.154-15.625-14.589-25.722-29.131-25.722-6.586 0-13.576 2.207-20.414 6.417-6.917-4.414-13.842-6.647-20.636-6.647-14.638 0-26.035 10.214-29.033 26.01-4.128 21.521 8.584 49.931 46.291 64.887.1.042.21.08.317.116a9.55 9.55 0 0 0 3 .527 9.817 9.817 0 0 0 3-.527c.121-.041.24-.085.358-.132 37.683-15.269 50.38-43.59 46.247-64.884zm-49.613 53.341c-30.471-12.511-40.975-34.556-37.813-51.034 1.9-10.029 8.511-16.259 17.245-16.259 5.233 0 11.109 2.32 16.992 6.709a6 6 0 0 0 7.109.05c5.809-4.21 11.829-6.529 16.949-6.529 8.7 0 15.354 6.159 17.364 16.075 3.145 16.265-7.374 38.214-37.845 50.988z"/><path d="m164.406 75.812c-.59-1.547-1.173-3.217-1.732-4.962a6 6 0 0 0 -11.428 3.66c.625 1.952 1.281 3.829 1.948 5.579a6 6 0 0 0 11.212-4.277z"/><path d="m198.9 121.514a101.813 101.813 0 0 1 -27.949-31.7 6 6 0 1 0 -10.454 5.891 113.922 113.922 0 0 0 31.271 35.461 6 6 0 0 0 7.132-9.652z"/></svg>