<svg id="Capa_1" enable-background="new 0 0 512 512" height="512" viewBox="0 0 512 512" width="512" xmlns="http://www.w3.org/2000/svg"><path d="m395.241 81.123c3.902-5.651 3.469-13.23-1.053-18.399l-50.388-57.6c-2.849-3.256-6.964-5.124-11.29-5.124h-153.019c-4.326 0-8.441 1.867-11.29 5.124l-50.39 57.599c-4.521 5.17-4.955 12.749-1.053 18.4l75.49 109.318 14.021 36.532-23.986 208.718c-.367 3.196.304 6.427 1.912 9.213l34.407 59.596c2.68 4.641 7.631 7.5 12.99 7.5h48.813c5.359 0 10.311-2.859 12.99-7.5l34.408-59.596c1.608-2.786 2.279-6.017 1.912-9.213l-23.985-208.718 14.021-36.532zm-172.385 105.34 33.144-37.888 33.145 37.888-9.046 23.57h-48.196zm111.049-147.086 30.014 34.31-58.925 85.33-30.015-34.31zm-29.983-9.377-47.922 69.396-47.922-69.396zm-125.826 9.377 58.925 85.33-30.014 34.31-58.926-85.33zm93.65 442.623h-31.492l-27.6-47.805 22.313-194.162h42.065l22.313 194.161z"/></svg>